<?xml version="1.0" encoding="UTF-8"?>
<svg version="1.1" xmlns="http://www.w3.org/2000/svg" width="180" height="180">
<path d="M0 0 C59.4 0 118.8 0 180 0 C180 59.4 180 118.8 180 180 C120.6 180 61.2 180 0 180 C0 120.6 0 61.2 0 0 Z " fill="#101922" transform="translate(0,0)"/>
<path d="M0 0 C3.08597543 1.98873972 5.43449685 4.01484924 7.8125 6.8125 C7.8125 7.8025 7.8125 8.7925 7.8125 9.8125 C7.19375 9.93625 6.575 10.06 5.9375 10.1875 C3.62129168 10.68447356 3.62129168 10.68447356 1.8125 12.8125 C1.4825 13.1425 1.1525 13.4725 0.8125 13.8125 C0.44489269 16.14067964 0.11008419 18.4743385 -0.1875 20.8125 C0.92625 20.626875 2.04 20.44125 3.1875 20.25 C6.8125 19.8125 6.8125 19.8125 8.8125 20.8125 C8.8125 22.7925 8.8125 24.7725 8.8125 26.8125 C12.28191546 26.35427532 15.48645049 25.92118317 18.8125 24.8125 C20.02132096 22.81233534 20.02132096 22.81233534 20.8125 20.8125 C22.1325 20.8125 23.4525 20.8125 24.8125 20.8125 C24.7283797 23.67259035 24.24431261 25.35898827 22.2578125 27.4453125 C17.23828052 31.75669474 14.17733249 33.27882827 7.484375 33.23046875 C1.92479054 32.36076767 -1.70078301 28.38181238 -5.4375 24.4375 C-7.27800872 22.35886593 -7.27800872 22.35886593 -11.1875 22.8125 C-9.8675 23.4725 -8.5475 24.1325 -7.1875 24.8125 C-8.1775 25.4725 -9.1675 26.1325 -10.1875 26.8125 C-9.07375 27.121875 -7.96 27.43125 -6.8125 27.75 C-3.1875 28.8125 -3.1875 28.8125 -1.1875 29.8125 C-1.1875 30.4725 -1.1875 31.1325 -1.1875 31.8125 C-5.42093493 33.22364498 -9.06893144 33.72949236 -13.28125 31.90625 C-17.79484981 29.27893071 -21.05572465 26.6978185 -23.1875 21.8125 C-23.91810892 16.27965957 -23.9358379 11.52744103 -21.6875 6.375 C-15.21000689 -0.26443044 -9.17260836 -3.41724625 0 0 Z " fill="#121A25" transform="translate(89.1875,74.1875)"/>
<path d="M0 0 C3.08597543 1.98873972 5.43449685 4.01484924 7.8125 6.8125 C7.8125 7.8025 7.8125 8.7925 7.8125 9.8125 C6.125 10.625 6.125 10.625 3.8125 10.8125 C3.090625 10.02875 2.36875 9.245 1.625 8.4375 C-1.68687407 5.34641754 -3.55957314 4.87392561 -7.96875 4.609375 C-11.55615226 4.93779915 -13.56259664 6.44368477 -16.1875 8.8125 C-18.7761556 12.22481875 -18.47971504 15.64843568 -18.1875 19.8125 C-17.6558363 22.48285306 -17.6558363 22.48285306 -16.1875 24.8125 C-13.44228806 25.99691261 -13.44228806 25.99691261 -10.25 26.5 C-6.51709652 27.23932353 -4.38852517 27.67848322 -1.1875 29.8125 C-1.1875 30.4725 -1.1875 31.1325 -1.1875 31.8125 C-5.42093493 33.22364498 -9.06893144 33.72949236 -13.28125 31.90625 C-17.79484981 29.27893071 -21.05572465 26.6978185 -23.1875 21.8125 C-23.91810892 16.27965957 -23.9358379 11.52744103 -21.6875 6.375 C-15.21000689 -0.26443044 -9.17260836 -3.41724625 0 0 Z " fill="#C6AC43" transform="translate(89.1875,74.1875)"/>
<path d="M0 0 C1.65 0.33 3.3 0.66 5 1 C4.89300781 1.73605469 4.78601563 2.47210938 4.67578125 3.23046875 C3.86820714 9.21193441 3.86820714 9.21193441 5.125 15 C8.388004 18.4805376 10.68976297 19.88301455 15.5 20.3125 C18.85369134 20.01306327 21.08692189 19.66461606 24 18 C25.34410262 15.98264795 25.34410262 15.98264795 26 14 C27.32 14 28.64 14 30 14 C29.9158797 16.86009035 29.43181261 18.54648827 27.4453125 20.6328125 C22.427373 24.94282693 19.36678313 26.4663841 12.67578125 26.41796875 C7.31767831 25.5810096 3.6263309 22.02345822 0.3203125 17.91015625 C-2.46071436 13.88671799 -2.25218159 9.79145019 -2 5 C-1 2.0625 -1 2.0625 0 0 Z " fill="#9B7F31" transform="translate(84,81)"/>
<path d="M0 0 C0.495 0.70125 0.99 1.4025 1.5 2.125 C5.19258259 6.37146997 8.83554134 10.35050463 14.53125 11.51953125 C20.14099246 11.74763825 23.67637678 10.7963521 28 7 C30.11701923 4.59097812 30.97710794 3.06867617 32 0 C33.32 0.33 34.64 0.66 36 1 C36 2.32 36 3.64 36 5 C35.34 5 34.68 5 34 5 C34 5.99 34 6.98 34 8 C26.69519493 12.37965083 20.49329886 13.83947373 12 14 C12.33 14.99 12.66 15.98 13 17 C11.35 17 9.7 17 8 17 C8 16.34 8 15.68 8 15 C5.36 14.67 2.72 14.34 0 14 C0 14.99 0 15.98 0 17 C-3.3 17 -6.6 17 -10 17 C-9.34 16.360625 -8.68 15.72125 -8 15.0625 C-5.88397569 13.35917681 -5.88397569 13.35917681 -6 12 C-0.06 11.505 -0.06 11.505 6 11 C6 10.34 6 9.68 6 9 C2.37 8.01 -1.26 7.02 -5 6 C-4.34 5.34 -3.68 4.68 -3 4 C-3.66 3.34 -4.32 2.68 -5 2 C-4.01 1.67 -3.02 1.34 -2 1 C-1.34 1.33 -0.68 1.66 0 2 C0 1.34 0 0.68 0 0 Z " fill="#14180F" transform="translate(82,95)"/>
<path d="M0 0 C0.33 0.66 0.66 1.32 1 2 C3.02463255 2.65213292 3.02463255 2.65213292 5 3 C4.67 4.65 4.34 6.3 4 8 C6.97 8.495 6.97 8.495 10 9 C9.34 9.66 8.68 10.32 8 11 C8.33 11.99 8.66 12.98 9 14 C8.34 14 7.68 14 7 14 C7 14.99 7 15.98 7 17 C8.65 17 10.3 17 12 17 C12.33 16.01 12.66 15.02 13 14 C13.66 13.67 14.32 13.34 15 13 C16.13350534 10.98330173 16.13350534 10.98330173 17 9 C17.8125 10.6875 17.8125 10.6875 18 13 C15.28317033 16.65073987 13.67370183 17.8564242 9.1875 18.8125 C7.6096875 18.9053125 7.6096875 18.9053125 6 19 C4.66667905 16.3333581 5.32897967 14.83319697 6 12 C3.03 12 0.06 12 -3 12 C-3.37211538 3.44134615 -3.37211538 3.44134615 -1.48828125 1.20703125 C-0.99714844 0.80871094 -0.50601563 0.41039063 0 0 Z " fill="#101516" transform="translate(92,83)"/>
<path d="M0 0 C4.90494027 1.80913536 8.29195783 3.49895059 10.5625 8.3125 C10.706875 9.199375 10.85125 10.08625 11 11 C9.25 11.6875 9.25 11.6875 7 12 C4.75 10.6875 4.75 10.6875 3 9 C3 8.34 3 7.68 3 7 C2.22914062 6.90203125 1.45828125 6.8040625 0.6640625 6.703125 C-0.84027344 6.47882813 -0.84027344 6.47882813 -2.375 6.25 C-3.37273437 6.11078125 -4.37046875 5.9715625 -5.3984375 5.828125 C-8 5 -8 5 -9.3515625 2.921875 C-9.56554687 2.28765625 -9.77953125 1.6534375 -10 1 C-6.73151785 -0.63424107 -3.53068826 -0.52750521 0 0 Z " fill="#A48F3A" transform="translate(103,73)"/>
<path d="M0 0 C2.9375 0.8125 2.9375 0.8125 6 2 C6.33 2.99 6.66 3.98 7 5 C9.69278672 5.96103058 9.69278672 5.96103058 12.875 6.5625 C16.58799533 7.35430744 18.81163304 7.87442202 22 10 C22 10.66 22 11.32 22 12 C17.76656507 13.41114498 14.11856856 13.91699236 9.90625 12.09375 C5.28919834 9.40621246 2.51217073 6.71032012 0 2 C0 1.34 0 0.68 0 0 Z " fill="#B1A03E" transform="translate(66,94)"/>
<path d="M0 0 C2.625 1.125 2.625 1.125 5 3 C5.3125 5.6875 5.3125 5.6875 5 8 C4.34 8 3.68 8 3 8 C2.67 10.64 2.34 13.28 2 16 C3.670625 15.7215625 3.670625 15.7215625 5.375 15.4375 C9 15 9 15 11 16 C11 18.31 11 20.62 11 23 C6.61360131 21.80370945 3.63346088 20.80388794 1 17 C-0.1352978 12.26367948 -0.36870664 7.71443399 1 3 C0.01 2.34 -0.98 1.68 -2 1 C-1.34 0.67 -0.68 0.34 0 0 Z " fill="#2C1F09" transform="translate(87,79)"/>
<path d="M0 0 C5.54529083 0.16044241 8.96689373 2.19675542 13.125 5.8125 C15.25 8.3125 15.25 8.3125 15.25 11.3125 C13.5625 12.125 13.5625 12.125 11.25 12.3125 C8.6875 10 8.6875 10 6.25 7.3125 C5.26 6.6525 4.27 5.9925 3.25 5.3125 C3.58 4.6525 3.91 3.9925 4.25 3.3125 C0.95 2.9825 -2.35 2.6525 -5.75 2.3125 C-3.75 0.3125 -3.75 0.3125 0 0 Z " fill="#AE9142" transform="translate(81.75,72.6875)"/>
<path d="M0 0 C0.66 0.66 1.32 1.32 2 2 C1.52949219 2.37769531 1.05898437 2.75539063 0.57421875 3.14453125 C-1.49679029 5.58554686 -1.70686716 7.54490066 -2.1875 10.6875 C-2.34605469 11.68136719 -2.50460938 12.67523438 -2.66796875 13.69921875 C-2.77753906 14.45847656 -2.88710937 15.21773437 -3 16 C-3.33 16 -3.66 16 -4 16 C-4.027193 14.41676312 -4.04648306 12.83338938 -4.0625 11.25 C-4.07410156 10.36828125 -4.08570312 9.4865625 -4.09765625 8.578125 C-4.00826198 6.2181162 -3.66912821 4.25501476 -3 2 C-7.7487125 3.60582608 -7.7487125 3.60582608 -11.4375 6.75 C-12.6397762 11.5591048 -12.15627148 16.23038013 -11 21 C-13.74825354 18.16586354 -14.92473669 16.51743527 -15.5 12.5625 C-14.76792479 7.34646412 -12.73360801 4.3686379 -8.625 1.125 C-5.51397678 -0.20829567 -3.35266617 -0.37251846 0 0 Z " fill="#1D1606" transform="translate(85,78)"/>
<path d="M0 0 C1.66611905 -0.042721 3.33382885 -0.04063832 5 0 C5.33 0.33 5.66 0.66 6 1 C8.81019396 1.20298351 11.61815866 1.31933064 14.43359375 1.42578125 C17 2 17 2 18.34765625 4.04296875 C18.56292969 4.68878906 18.77820313 5.33460937 19 6 C18.38125 5.67 17.7625 5.34 17.125 5 C12.73788488 3.59612316 8.56848573 3.84032477 4 4 C5.64179359 7.12455058 5.64179359 7.12455058 8.1640625 7.73046875 C8.97617188 7.88128906 9.78828125 8.03210938 10.625 8.1875 C11.44226563 8.34605469 12.25953125 8.50460938 13.1015625 8.66796875 C13.72804688 8.77753906 14.35453125 8.88710937 15 9 C15 9.33 15 9.66 15 10 C13.35 10 11.7 10 10 10 C10 11.65 10 13.3 10 15 C9.46375 14.278125 8.9275 13.55625 8.375 12.8125 C6.51462713 10.60942687 4.97651791 9.11083979 2.75 7.375 C1.38875 6.199375 1.38875 6.199375 0 5 C0 3.33333333 0 1.66666667 0 0 Z " fill="#12140B" transform="translate(89,70)"/>
<path d="M0 0 C1.65 0.33 3.3 0.66 5 1 C4.01 5.95 3.02 10.9 2 16 C1.01 15.67 0.02 15.34 -1 15 C-2.77882289 9.66353134 -2.44723163 5.04741524 0 0 Z " fill="#BB9C44" transform="translate(84,81)"/>
<path d="M0 0 C2.4375 0.8125 2.4375 0.8125 5 2 C5.33 2.99 5.66 3.98 6 5 C7.0828125 4.2265625 7.0828125 4.2265625 8.1875 3.4375 C11.4195366 1.78557018 12.61608307 1.93648325 16 3 C16 3.33 16 3.66 16 4 C14.35 4 12.7 4 11 4 C11.66 5.32 12.32 6.64 13 8 C12.10796875 7.98839844 11.2159375 7.97679688 10.296875 7.96484375 C9.12640625 7.95582031 7.9559375 7.94679688 6.75 7.9375 C5.58984375 7.92589844 4.4296875 7.91429688 3.234375 7.90234375 C0.59022872 7.98217908 -1.49826091 8.21356222 -4 9 C-4 8.34 -4 7.68 -4 7 C-2.02 6.67 -0.04 6.34 2 6 C2 4.68 2 3.36 2 2 C1.34 2 0.68 2 0 2 C0 1.34 0 0.68 0 0 Z " fill="#111813" transform="translate(78,66)"/>
<path d="M0 0 C0.556875 0.7425 1.11375 1.485 1.6875 2.25 C3.93027178 4.91707995 6.22074975 6.91556232 9 9 C7.68 9 6.36 9 5 9 C5 9.66 5 10.32 5 11 C2.62051228 10.82374165 1.29774151 10.30280227 -0.37890625 8.59765625 C-1.62115486 7.09350908 -2.81376056 5.54870149 -4 4 C-2.68 2.68 -1.36 1.36 0 0 Z " fill="#9D8A3A" transform="translate(87,93)"/>
<path d="M0 0 C1.32 0 2.64 0 4 0 C3.58578031 4.83256305 1.53586014 6.82679218 -2 10 C-2.99 9.67 -3.98 9.34 -5 9 C-4.67 8.34 -4.34 7.68 -4 7 C-4.99 6.67 -5.98 6.34 -7 6 C-6.21625 5.7525 -5.4325 5.505 -4.625 5.25 C-1.67682892 3.84610901 -1.0975223 2.99324263 0 0 Z " fill="#957C45" transform="translate(110,95)"/>
<path d="M0 0 C0.8353125 1.0828125 0.8353125 1.0828125 1.6875 2.1875 C3.97909334 4.97457299 6.41459857 7.48641528 9 10 C8.34 10.66 7.68 11.32 7 12 C4.875 11.625 4.875 11.625 3 11 C3.99 11 4.98 11 6 11 C6 10.34 6 9.68 6 9 C2.37 8.01 -1.26 7.02 -5 6 C-4.34 5.34 -3.68 4.68 -3 4 C-3.66 3.34 -4.32 2.68 -5 2 C-4.01 1.67 -3.02 1.34 -2 1 C-1.34 1.33 -0.68 1.66 0 2 C0 1.34 0 0.68 0 0 Z " fill="#251E0D" transform="translate(82,95)"/>
<path d="M0 0 C0.8125 1.6875 0.8125 1.6875 1 4 C-1.71682967 7.65073987 -3.32629817 8.8564242 -7.8125 9.8125 C-9.3903125 9.9053125 -9.3903125 9.9053125 -11 10 C-12.33332095 7.3333581 -11.67102033 5.83319697 -11 3 C-11.99 2.67 -12.98 2.34 -14 2 C-13.34 1.67 -12.68 1.34 -12 1 C-9.875 1.9375 -9.875 1.9375 -8 3 C-8 3.66 -8 4.32 -8 5 C-8.66 5 -9.32 5 -10 5 C-10 5.99 -10 6.98 -10 8 C-8.35 8 -6.7 8 -5 8 C-4.67 7.01 -4.34 6.02 -4 5 C-3.34 4.67 -2.68 4.34 -2 4 C-0.86649466 1.98330173 -0.86649466 1.98330173 0 0 Z " fill="#151209" transform="translate(109,92)"/>
<path d="M0 0 C1.0209375 0.433125 1.0209375 0.433125 2.0625 0.875 C5.32811789 2.12566217 8.63673123 3.04813148 12 4 C12.66 4.33 13.32 4.66 14 5 C14 5.66 14 6.32 14 7 C10.52674819 8.1577506 7.63932552 8.06866652 4 8 C4.66 6.68 5.32 5.36 6 4 C5.071875 3.7834375 5.071875 3.7834375 4.125 3.5625 C2 3 2 3 0 2 C0 1.34 0 0.68 0 0 Z " fill="#A78C41" transform="translate(74,99)"/>
<path d="M0 0 C0.66 0.33 1.32 0.66 2 1 C1.38125 1.61875 0.7625 2.2375 0.125 2.875 C-2.71043937 7.04476378 -3.27334545 11.07595927 -4 16 C-3.34 16 -2.68 16 -2 16 C-3 18 -3 18 -5 19 C-5.92350727 16.22947819 -6.16329585 14.43311242 -6.1875 11.5625 C-6.20167969 10.80066406 -6.21585937 10.03882812 -6.23046875 9.25390625 C-5.97612666 6.76652685 -5.24017196 5.15191894 -4 3 C-3.34 3 -2.68 3 -2 3 C-2 2.34 -2 1.68 -2 1 C-1.34 0.67 -0.68 0.34 0 0 Z " fill="#C7A627" transform="translate(73,78)"/>
<path d="M0 0 C1.875 0.625 1.875 0.625 4 2 C5.25 5.125 5.25 5.125 6 8 C4.25 8.6875 4.25 8.6875 2 9 C-0.25 7.5625 -0.25 7.5625 -2 6 C-1.34 4.02 -0.68 2.04 0 0 Z " fill="#A38B46" transform="translate(108,76)"/>
<path d="M0 0 C0 1.32 0 2.64 0 4 C-1.11375 3.79375 -2.2275 3.5875 -3.375 3.375 C-4.57125 3.25125 -5.7675 3.1275 -7 3 C-7.66 3.66 -8.32 4.32 -9 5 C-9.99 5 -10.98 5 -12 5 C-12 3.68 -12 2.36 -12 1 C-8.0186217 -0.3271261 -4.14954773 -0.06915913 0 0 Z " fill="#13152F" transform="translate(96,66)"/>
<path d="M0 0 C2.5 1.8125 2.5 1.8125 5 4 C5 4.99 5 5.98 5 7 C3.68 7.33 2.36 7.66 1 8 C-0.65 6.02 -2.3 4.04 -4 2 C-2.68 1.34 -1.36 0.68 0 0 Z " fill="#B29D47" transform="translate(92,77)"/>
<path d="M0 0 C0.33 0.66 0.66 1.32 1 2 C1.66 2.33 2.32 2.66 3 3 C2.01 5.64 1.02 8.28 0 11 C-0.66 11 -1.32 11 -2 11 C-2.96891192 5.62694301 -2.96891192 5.62694301 -3 3 C-1.5625 1 -1.5625 1 0 0 Z " fill="#16251E" transform="translate(92,83)"/>
<path d="M0 0 C0.39832031 0.47050781 0.79664062 0.94101563 1.20703125 1.42578125 C3.3617393 3.31760553 4.89091882 3.66060789 7.6875 4.1875 C8.49574219 4.34605469 9.30398437 4.50460938 10.13671875 4.66796875 C11.05904297 4.83232422 11.05904297 4.83232422 12 5 C12 5.33 12 5.66 12 6 C10.35 6 8.7 6 7 6 C7 7.65 7 9.3 7 11 C4.33333333 7.66666667 1.66666667 4.33333333 -1 1 C-0.67 0.67 -0.34 0.34 0 0 Z " fill="#2B1E07" transform="translate(92,74)"/>
<path d="M0 0 C3.4375 1.3125 3.4375 1.3125 7 3 C7.33 3.99 7.66 4.98 8 6 C5.36 6 2.72 6 0 6 C0 5.34 0 4.68 0 4 C-0.66 3.67 -1.32 3.34 -2 3 C-1.34 2.67 -0.68 2.34 0 2 C0 1.34 0 0.68 0 0 Z " fill="#221B1A" transform="translate(71,103)"/>
<path d="M0 0 C0.66 0 1.32 0 2 0 C2 0.66 2 1.32 2 2 C5.91063224 3.47047336 5.91063224 3.47047336 10 4 C10.33 3.34 10.66 2.68 11 2 C11 2.99 11 3.98 11 5 C4.6 6.23076923 4.6 6.23076923 1.5625 5.0625 C1.046875 4.711875 0.53125 4.36125 0 4 C0 2.68 0 1.36 0 0 Z " fill="#262717" transform="translate(104,80)"/>
<path d="M0 0 C0.268125 0.61875 0.53625 1.2375 0.8125 1.875 C1.95556848 4.2995233 1.95556848 4.2995233 5 6 C4.67 6.99 4.34 7.98 4 9 C2.35 9 0.7 9 -1 9 C-0.979375 8.21625 -0.95875 7.4325 -0.9375 6.625 C-0.81315937 4.01885039 -0.81315937 4.01885039 -2 2 C-1.34 2 -0.68 2 0 2 C0 1.34 0 0.68 0 0 Z " fill="#1C2825" transform="translate(97,82)"/>
<path d="M0 0 C1.98 0.495 1.98 0.495 4 1 C4 2.32 4 3.64 4 5 C3.34 5 2.68 5 2 5 C2 5.99 2 6.98 2 8 C1.34 8 0.68 8 0 8 C-0.79953138 4.71303767 -1.09658936 3.28976808 0 0 Z " fill="#222318" transform="translate(114,95)"/>
<path d="M0 0 C1.65 0.33 3.3 0.66 5 1 C4.34 2.65 3.68 4.3 3 6 C1.68 5.34 0.36 4.68 -1 4 C-0.67 2.68 -0.34 1.36 0 0 Z " fill="#91804A" transform="translate(93,94)"/>
<path d="M0 0 C0.66 0.33 1.32 0.66 2 1 C1.979375 2.051875 1.95875 3.10375 1.9375 4.1875 C1.98896802 7.32704904 2.26517187 9.96883396 3 13 C0.06738563 9.97574144 -0.95628972 8.52452339 -1.3125 4.25 C-1 1 -1 1 0 0 Z " fill="#342F0E" transform="translate(71,86)"/>
<path d="M0 0 C1.65 0 3.3 0 5 0 C4.67 1.32 4.34 2.64 4 4 C2.68 4 1.36 4 0 4 C0 2.68 0 1.36 0 0 Z M-2 4 C-1.34 4 -0.68 4 0 4 C-0.33 4.66 -0.66 5.32 -1 6 C-1.33 5.34 -1.66 4.68 -2 4 Z " fill="#091F18" transform="translate(96,66)"/>
<path d="M0 0 C0.99 0.33 1.98 0.66 3 1 C2.67 1.99 2.34 2.98 2 4 C1.34 4 0.68 4 0 4 C-0.33 6.64 -0.66 9.28 -1 12 C-1.33 12 -1.66 12 -2 12 C-2.17835515 7.45194365 -1.99785435 4.1205746 0 0 Z " fill="#9E8836" transform="translate(84,81)"/>
<path d="M0 0 C2.97 0.495 2.97 0.495 6 1 C5.67 1.99 5.34 2.98 5 4 C3.68 4 2.36 4 1 4 C0.67 2.68 0.34 1.36 0 0 Z " fill="#0E1D12" transform="translate(65,106)"/>
<path d="M0 0 C0.33 0.66 0.66 1.32 1 2 C2.97888961 2.72693904 4.97954558 3.39816251 7 4 C7 4.66 7 5.32 7 6 C3.62537285 5.45276317 1.91765 4.9451 -1 3 C-0.67 2.01 -0.34 1.02 0 0 Z " fill="#AD9D23" transform="translate(73,99)"/>
<path d="M0 0 C2.97 0.495 2.97 0.495 6 1 C7.125 4.75 7.125 4.75 6 7 C5.01 6.67 4.02 6.34 3 6 C3 4.68 3 3.36 3 2 C2.01 1.34 1.02 0.68 0 0 Z " fill="#AA934B" transform="translate(101,74)"/>
<path d="M0 0 C1.32 0.66 2.64 1.32 4 2 C3.34 2.66 2.68 3.32 2 4 C1.01 5.485 1.01 5.485 0 7 C-0.66 6.67 -1.32 6.34 -2 6 C-1.34 4.02 -0.68 2.04 0 0 Z " fill="#857233" transform="translate(108,76)"/>
<path d="M0 0 C0.66 0.33 1.32 0.66 2 1 C1.67 1.99 1.34 2.98 1 4 C-0.98 4 -2.96 4 -5 4 C-3.36587557 2.29159719 -2.13093906 1.06546953 0 0 Z " fill="#AE9632" transform="translate(90,75)"/>
</svg>
